<?xml version="1.0" encoding="iso-8859-1"?>
<!-- Generator: Adobe Illustrator 19.0.0, SVG Export Plug-In . SVG Version: 6.00 Build 0)  -->
<svg version="1.1" id="Capa_1" xmlns="http://www.w3.org/2000/svg" xmlns:xlink="http://www.w3.org/1999/xlink" x="0px" y="0px"
	 viewBox="0 0 512 512" style="enable-background:new 0 0 512 512;" xml:space="preserve">
<g transform="matrix(1.25 0 0 -1.25 0 45)">
	<path style="fill:#E1E8ED;" d="M398.222-373.6v39.822c0,37.706-41.939,62.578-79.644,62.578H182.044
		c-37.695,0-79.644-24.872-79.644-62.578V-373.6H398.222z"/>
	<path style="fill:#226699;" d="M204.8-271.2h91.022l-45.511-102.4L204.8-271.2z"/>
	<path style="fill:#963B22;" d="M249.689-21.677c46.706,0,124.552-23.359,124.552-124.552c0-101.217,0-124.564-23.347-124.564
		c-23.359,0-54.5,23.347-101.205,23.347s-77.198-23.347-101.205-23.347c-26.033,0-23.37,93.412-23.37,124.564
		C125.113-45.036,202.983-21.677,249.689-21.677"/>
	<path style="fill:#D5AB88;" d="M208.533-271.401c16.68-12.117,33.723-11.15,41.779-11.15c8.056,0,24.963-0.967,41.643,11.15v36.443
		h-83.422V-271.401L208.533-271.401z"/>
	<path style="fill:#CC9B7A;" d="M208.467-250.478c11.628-13.141,26.055-16.703,41.734-16.703c15.69,0,30.117,3.561,41.756,16.703
		v33.405h-83.49V-250.478z"/>
	<path style="fill:#D5AB88;" d="M156.261-142.834c0,66.378,41.825,120.195,93.423,120.195c51.587,0,93.4-53.817,93.4-120.195
		c0-66.367-41.813-117.02-93.4-117.02C198.086-259.854,156.261-209.2,156.261-142.834"/>
	<path style="fill:#DF1F32;" d="M249.689-231.867c-18.273,0-27.841,9.034-28.865,10.069c-3.049,3.027-3.049,7.964,0,11.002
		c3.027,3.003,7.873,3.027,10.934,0.069c0.398-0.364,6.269-5.587,17.932-5.587c11.81,0,17.692,5.382,17.932,5.598
		c3.117,2.913,7.999,2.822,10.957-0.216c2.958-3.06,2.958-7.873-0.045-10.866C277.507-222.833,267.95-231.867,249.689-231.867"/>
	<path style="fill:#963B22;" d="M133.405-180.178c-0.239,11.378-0.5,2.548-0.5,5.291c0,38.935,23.359-5.62,23.359,22.107
		c0,27.75,15.565,30.527,31.141,46.092c7.782,7.794,23.347,23.052,23.347,23.052s38.924-23.518,70.065-23.518
		s62.282-15.644,62.282-46.785s23.359,18.022,23.359-20.901c0-2.776-0.262,6.042-0.455-5.336h8.18
		c0.069,22.756,0.069,21.891,0.069,36.431c0,101.205-77.847,122.072-124.575,122.072c-46.694,0-124.552-20.241-124.552-121.446
		c0-9.023-0.228-14.302,0.091-37.057h8.191V-180.178z"/>
	<g>
		<path style="fill:#662113;" d="M211.722-167.513L211.722-167.513c-5.291,0-9.626,4.335-9.626,9.637v9.603
			c0,5.291,4.335,9.626,9.626,9.626c5.302,0,9.637-4.335,9.637-9.626v-9.603C221.359-163.179,217.024-167.513,211.722-167.513"/>
		<path style="fill:#662113;" d="M288.689-167.513L288.689-167.513c-5.291,0-9.626,4.335-9.626,9.637v9.603
			c0,5.291,4.335,9.626,9.626,9.626s9.626-4.335,9.626-9.626v-9.603C298.314-163.179,293.979-167.513,288.689-167.513"/>
	</g>
	<path style="fill:#C1694F;" d="M259.822-197.244h-19.228c-2.662,0-4.813,2.15-4.813,4.813v1.741c0,2.662,2.15,4.824,4.813,4.824
		h19.228c2.651,0,4.824-2.162,4.824-4.824v-1.741C264.646-195.094,262.473-197.244,259.822-197.244"/>
	<path style="fill:#CCD6DD;" d="M369.778-100.533c0,0-34.133-11.378-119.467-11.378s-119.467,11.378-119.467,11.378v68.267h238.933
		V-100.533z"/>
	<g>
		<path style="fill:#99AAB5;" d="M159.289-89.156c0-3.141-2.548-5.689-5.689-5.689c-3.141,0-5.689,2.548-5.689,5.689v34.133
			c0,3.141,2.548,5.689,5.689,5.689c3.141,0,5.689-2.548,5.689-5.689V-89.156z"/>
		<path style="fill:#99AAB5;" d="M352.711-89.156c0-3.141-2.548-5.689-5.689-5.689s-5.689,2.548-5.689,5.689v34.133
			c0,3.141,2.548,5.689,5.689,5.689s5.689-2.548,5.689-5.689V-89.156z"/>
		<path style="fill:#99AAB5;" d="M204.8-94.844c0-3.141-2.548-5.689-5.689-5.689s-5.689,2.548-5.689,5.689v34.133
			c0,3.141,2.548,5.689,5.689,5.689s5.689-2.548,5.689-5.689V-94.844z"/>
		<path style="fill:#99AAB5;" d="M256-97.689c0-3.141-2.548-5.689-5.689-5.689s-5.689,2.548-5.689,5.689v34.133
			c0,3.141,2.548,5.689,5.689,5.689S256-60.415,256-63.556V-97.689z"/>
		<path style="fill:#99AAB5;" d="M307.2-94.844c0-3.141-2.548-5.689-5.689-5.689s-5.689,2.548-5.689,5.689v34.133
			c0,3.141,2.548,5.689,5.689,5.689s5.689-2.548,5.689-5.689V-94.844z"/>
	</g>
	<path style="fill:#E1E8ED;" d="M321.422,36c-13.164,0-25.452-3.641-36.033-9.887C274.808,32.359,262.52,36,249.356,36
		c-12.766,0-24.724-3.413-35.078-9.307C203.924,32.587,191.966,36,179.2,36c-39.276,0-71.111-31.835-71.111-71.111
		s128.5-36.978,141.267-36.978c13.164,0,143.178-2.298,143.178,36.978S360.687,36,321.422,36"/>
	<g>
		<path style="fill:#C1694F;" d="M113.778-245.6c0-39.276-22.926-59.733-51.2-59.733s-51.2,20.457-51.2,59.733
			s22.926,82.489,51.2,82.489S113.778-206.324,113.778-245.6"/>
		<path style="fill:#C1694F;" d="M73.956-373.6H51.2v91.022h22.756V-373.6z"/>
	</g>
	<g>
		<path style="fill:#D5AB88;" d="M175.721-145.314c0-16.475-8.351-29.832-18.648-29.832c-10.297,0-18.648,13.357-18.648,29.832
			s8.351,29.844,18.648,29.844C167.37-115.47,175.721-128.839,175.721-145.314"/>
		<path style="fill:#D5AB88;" d="M362.189-145.314c0-16.475-8.34-29.832-18.648-29.832c-10.297,0-18.637,13.357-18.637,29.832
			s8.34,29.844,18.637,29.844C353.849-115.471,362.189-128.839,362.189-145.314"/>
	</g>
	<g>
		<path style="fill:#CCD6DD;" d="M169.467-15.073c0.41-0.091,0.808-0.125,1.206-0.125c2.629,0,4.984,1.82,5.553,4.483
			c0.364,1.65,3.812,16.396,15.019,25.167c8.647,6.781,19.889,11.23,22.835,12.333c-4.517,2.56-9.375,4.563-14.427,6.087
			c-4.813-2.378-10.399-5.53-15.429-9.466c-14.052-11.002-18.387-28.353-19.115-31.721
			C164.449-11.386,166.395-14.413,169.467-15.073"/>
		<path style="fill:#CCD6DD;" d="M307.777,14.353c11.219-8.783,14.666-23.507,15.007-25.167c0.581-2.662,2.936-4.483,5.575-4.483
			c0.387,0,0.785,0.034,1.195,0.125c3.072,0.66,5.018,3.686,4.369,6.758c-0.74,3.356-5.04,20.696-19.126,31.721
			c-4.847,3.789-10.195,6.849-14.882,9.204c-4.938-1.593-9.683-3.607-14.086-6.167C289.652,24.855,299.779,20.611,307.777,14.353"/>
	</g>
</g>
<g>
</g>
<g>
</g>
<g>
</g>
<g>
</g>
<g>
</g>
<g>
</g>
<g>
</g>
<g>
</g>
<g>
</g>
<g>
</g>
<g>
</g>
<g>
</g>
<g>
</g>
<g>
</g>
<g>
</g>
</svg>
