<?xml version="1.0" encoding="iso-8859-1"?>
<!-- Generator: Adobe Illustrator 19.0.0, SVG Export Plug-In . SVG Version: 6.00 Build 0)  -->
<svg version="1.1" id="Capa_1" xmlns="http://www.w3.org/2000/svg" xmlns:xlink="http://www.w3.org/1999/xlink" x="0px" y="0px"
	 viewBox="0 0 512 512" style="enable-background:new 0 0 512 512;" xml:space="preserve">
<g transform="matrix(1.25 0 0 -1.25 0 45)">
	<path style="fill:#292F33;" d="M307.2-168.8c0-56.559-45.841-56.889-102.4-56.889s-102.4,0.33-102.4,56.889
		c0,101.695,45.841,102.4,102.4,102.4S307.2-67.549,307.2-168.8"/>
	<path style="fill:#DD2E44;" d="M341.333-373.6v11.378c0,37.706-19.183,68.267-56.889,68.267H125.156
		c-37.695,0-56.889-30.561-56.889-68.267V-373.6H341.333z"/>
	<path style="fill:#D5AB88;" d="M166.412-299.145c15.291-11.105,24.974-13.585,38.229-13.585c13.255,0,22.949,2.481,38.241,13.585
		v33.416h-76.47V-299.145z"/>
	<path style="fill:#CC9B7A;" d="M166.339-280.477c10.673-12.06,23.893-15.315,38.275-15.315s27.603,3.265,38.264,15.315v30.606
		h-76.538V-280.477z"/>
	<g>
		<path style="fill:#D5AB88;" d="M147.162-192.467c0-12.686-6.428-22.995-14.37-22.995c-7.942,0-14.37,10.309-14.37,22.995
			c0,12.698,6.428,22.995,14.37,22.995C140.733-169.472,147.162-179.77,147.162-192.467"/>
		<path style="fill:#D5AB88;" d="M290.877-192.467c0-12.686-6.428-22.995-14.37-22.995s-14.37,10.309-14.37,22.995
			c0,12.698,6.428,22.995,14.37,22.995S290.877-179.77,290.877-192.467"/>
		<path style="fill:#D5AB88;" d="M129.912-201.445c0,49.016,33.462,88.747,74.729,88.747c41.279,0,74.74-39.731,74.74-88.747
			s-33.462-88.747-74.74-88.747C163.373-290.192,129.912-250.46,129.912-201.445"/>
	</g>
	<path style="fill:#C1694F;" d="M204.644-261.445c-24.155,0-31.562,6.189-32.813,7.418c-2.241,2.264-2.241,5.894,0,8.147
		c2.184,2.173,5.666,2.23,7.919,0.205c0.455-0.341,6.326-4.267,24.895-4.267c19.285,0,24.883,4.244,24.929,4.289
		c2.241,2.23,5.757,2.117,8.01-0.114c2.241-2.253,2.117-5.996-0.125-8.261C236.217-255.255,228.799-261.445,204.644-261.445"/>
	<g>
		<path style="fill:#662113;" d="M169.572-201.8L169.572-201.8c-4.824,0-8.773,3.96-8.773,8.773v8.761
			c0,4.824,3.948,8.783,8.773,8.783s8.773-3.96,8.773-8.783v-8.761C178.344-197.84,174.396-201.8,169.572-201.8"/>
		<path style="fill:#662113;" d="M239.722-201.8L239.722-201.8c-4.824,0-8.773,3.96-8.773,8.773v8.761
			c0,4.824,3.948,8.783,8.773,8.783c4.824,0,8.773-3.96,8.773-8.783v-8.761C248.495-197.84,244.547-201.8,239.722-201.8"/>
	</g>
	<path style="fill:#C1694F;" d="M211.223-225.911H198.07c-3.618,0-6.577,2.958-6.577,6.577s2.958,6.577,6.577,6.577h13.153
		c3.618,0,6.577-2.958,6.577-6.577S214.841-225.911,211.223-225.911"/>
	<g>
		<path style="fill:#292F33;" d="M143.111-310.577l-52.941-8.385c-3.095-0.489-6.019,1.638-6.508,4.733l-1.786,11.23
			c-0.489,3.095,1.638,6.018,4.733,6.508l52.941,8.397c3.095,0.489,6.019-1.65,6.508-4.722l1.786-11.252
			C148.333-307.164,146.205-310.089,143.111-310.577"/>
		<path style="fill:#292F33;" d="M266.788-310.577l52.929-8.385c3.106-0.489,6.03,1.638,6.52,4.733l1.786,11.23
			c0.489,3.095-1.65,6.018-4.733,6.508l-52.952,8.397c-3.084,0.489-6.018-1.65-6.508-4.722l-1.775-11.252
			C261.566-307.164,263.693-310.089,266.788-310.577"/>
	</g>
	<path style="fill:#99AAB5;" d="M135.111-168.8c0,0-1.979-102.4,69.553-102.4s69.825,102.4,69.825,102.4h9.956
		c0,0-3.493-113.778-79.644-113.778S125.156-168.8,125.156-168.8L135.111-168.8L135.111-168.8z"/>
	<path style="fill:#292F33;" d="M295.822-168.8H113.778c-6.258,0-11.378,5.12-11.378,11.378v125.156
		C102.4,5.28,133.12,36,170.667,36h68.267C276.48,36,307.2,5.28,307.2-32.267v-125.156C307.2-163.68,302.08-168.8,295.822-168.8"/>
	<path style="fill:#F5F8FA;" d="M210.489-373.6h-11.378v56.889h11.378V-373.6z"/>
	<g>
		<path style="fill:#292F33;" d="M166.339-280.477c0,0-7.054,1.445-7.054-13.483c0-14.905,21.481-34.133,45.511-34.133v22.756
			C191.78-305.338,166.339-298.409,166.339-280.477"/>
		<path style="fill:#292F33;" d="M243.256-280.477c0,0,7.054,1.445,7.054-13.483c0-14.905-21.481-34.133-45.511-34.133v22.756
			C217.827-305.338,243.256-298.409,243.256-280.477"/>
	</g>
</g>
<g>
</g>
<g>
</g>
<g>
</g>
<g>
</g>
<g>
</g>
<g>
</g>
<g>
</g>
<g>
</g>
<g>
</g>
<g>
</g>
<g>
</g>
<g>
</g>
<g>
</g>
<g>
</g>
<g>
</g>
</svg>
