<?xml version="1.0" encoding="iso-8859-1"?>
<!-- Generator: Adobe Illustrator 19.0.0, SVG Export Plug-In . SVG Version: 6.00 Build 0)  -->
<svg version="1.1" id="Layer_1" xmlns="http://www.w3.org/2000/svg" xmlns:xlink="http://www.w3.org/1999/xlink" x="0px" y="0px"
	 viewBox="0 0 511.999 511.999" style="enable-background:new 0 0 511.999 511.999;" xml:space="preserve">
<path style="fill:#55C6A1;" d="M511.998,255.405c0.144,64.931-23.883,124.266-63.632,169.489
	c-8.583,9.771-17.909,18.886-27.869,27.247c-42.414,35.63-96.564,57.736-155.832,59.712c-2.676,0.089-5.374,0.133-8.072,0.144
	c-2.842,0.011-5.663-0.033-8.483-0.122c-59.157-1.788-113.296-23.661-155.787-59.046c-9.971-8.294-19.308-17.343-27.913-27.047
	c-39.949-45.045-64.265-104.269-64.409-169.2C-0.21,161.528,51.397,78.466,128.209,34.132c37.44-21.618,80.875-34.02,127.208-34.131
	c46.755-0.111,90.612,12.324,128.374,34.131C460.246,78.255,511.787,160.773,511.998,255.405z"/>
<path style="fill:#EB305B;" d="M420.495,452.141c-42.414,35.63-96.564,57.736-155.832,59.712c-2.676,0.089-5.374,0.133-8.072,0.144
	c-2.842,0.011-5.663-0.033-8.483-0.122c-46.6-1.41-90.09-15.278-127.219-38.417c-10.004-6.218-19.553-13.124-28.568-20.63
	c22.362-23.061,49.542-41.448,79.931-53.506c1.033-0.411,2.076-0.811,3.12-1.21c9.249-3.52,18.775-6.451,28.557-8.76
	c8.616-2.032,17.41-3.575,26.37-4.597c5.874-0.688,11.803-1.133,17.809-1.355c2.687-0.111,5.385-0.155,8.105-0.167
	c2.831-0.011,5.651,0.033,8.449,0.144c25.548,0.866,50.053,5.918,72.836,14.501c1.044,0.389,2.087,0.799,3.131,1.21
	C370.942,411.027,398.1,429.247,420.495,452.141z"/>
<path style="fill:#D32654;" d="M230.299,384.762l-11.947,14.645c0,0-63.077,25.726-97.463,74.058
	c-10.004-6.218-19.553-13.124-28.568-20.63c29.878-30.822,68.373-53.273,111.608-63.476
	C212.545,387.326,221.339,385.783,230.299,384.762z"/>
<path style="fill:#545049;" d="M314.516,372.788v36.297c0,8.959-5.441,17.101-13.81,20.299c-10.507,4.015-21.429,6.554-32.457,7.612
	c-7.872,0.744-15.811,0.744-23.683,0c-11.028-1.059-21.949-3.597-32.457-7.612c-8.369-3.198-13.81-11.34-13.81-20.299v-36.297
	C234.652,392.03,278.165,392.03,314.516,372.788z"/>
<path style="fill:#FFFFFF;" d="M268.25,391.297v45.7c-7.872,0.744-15.811,0.744-23.683,0v-45.7H268.25z"/>
<g>
	<path style="fill:#EFC881;" d="M187.233,242.862c0-17.945-16.76-32.492-37.435-32.492s-37.435,14.547-37.435,32.492
		s16.76,45.1,37.435,45.1S187.233,260.807,187.233,242.862z"/>
	<path style="fill:#EFC881;" d="M399.636,242.862c0-17.945-16.76-32.492-37.435-32.492c-20.675,0-37.435,14.547-37.435,32.492
		s16.76,45.1,37.435,45.1C382.876,287.962,399.636,260.807,399.636,242.862z"/>
</g>
<g>
	<path style="fill:#E0B775;" d="M385.071,248.224c0-10.589-6.462-19.174-14.434-19.174c-7.972,0-14.434,8.584-14.434,19.174
		c0,10.59,6.462,11.957,14.434,11.957C378.609,260.181,385.071,258.813,385.071,248.224z"/>
	<path style="fill:#E0B775;" d="M155.792,248.224c0-10.589-6.462-19.174-14.434-19.174c-7.972,0-14.434,8.584-14.434,19.174
		c0,10.59,6.462,11.957,14.434,11.957S155.792,258.813,155.792,248.224z"/>
</g>
<path style="fill:#F9D387;" d="M371.342,211.96V278.7c0,12.602-1.654,24.793-4.741,36.296c-1.133,4.23-2.443,8.35-3.964,12.369
	c-12.524,33.676-37.706,60.101-68.995,72.037c-0.733,0.289-1.466,0.566-2.198,0.822c-11.17,4.008-23.083,6.151-35.441,6.151
	c-12.369,0-24.282-2.143-35.441-6.151c-0.744-0.255-1.477-0.533-2.21-0.822c-23.239-8.86-43.091-25.715-56.914-47.61
	c-4.797-7.583-8.86-15.766-12.08-24.427c-1.521-4.019-2.831-8.139-3.953-12.369c-3.098-11.503-4.752-23.694-4.752-36.296V211.96
	c0-40.215,16.799-76.078,43.047-99.473c19.775-17.643,44.923-28.202,72.303-28.202c31.844,0,60.678,14.29,81.552,37.406
	C358.429,144.786,371.342,176.707,371.342,211.96z"/>
<g>
	<path style="fill:#68635B;" d="M202.474,205.583l-32.447,2.469l0,0c1.191,3.767,8.383,6.347,16.063,5.762l32.447-2.469l0,0
		C217.345,207.579,210.154,204.998,202.474,205.583z"/>
	<path style="fill:#68635B;" d="M309.525,205.583l32.447,2.469l0,0c-1.191,3.767-8.383,6.347-16.063,5.762l-32.447-2.469l0,0
		C294.653,207.579,301.845,204.998,309.525,205.583z"/>
</g>
<g>
	<path style="fill:#EFC881;" d="M161.095,309.145l-0.155-1.189c-1.619-12.394-8.703-23.084-18.896-28.517l-1.389-0.741
		c0,12.608,1.651,24.795,4.744,36.3c1.127,4.223,2.438,8.343,3.958,12.361c12.531,33.675,37.709,60.11,68.997,72.036
		c-6.144-27.8-20.859-50.567-39.984-62.658C169.106,330.882,162.622,320.836,161.095,309.145z"/>
	<path style="fill:#EFC881;" d="M351.059,307.957l-0.155,1.189c-1.527,11.689-8.011,21.737-17.276,27.595
		c-19.125,12.091-33.84,34.858-39.984,62.658c31.287-11.926,56.466-38.361,68.997-72.036c1.52-4.019,2.831-8.14,3.958-12.361
		c3.093-11.505,4.744-23.693,4.744-36.3l-1.389,0.741C359.761,284.873,352.677,295.563,351.059,307.957z"/>
</g>
<g>
	<path style="fill:#F0A037;" d="M256.003,388.487c-11.573,0-22.923-2.174-33.739-6.463c-0.677-0.256-1.406-0.561-2.133-0.877
		c-21.507-9.052-40.573-26.631-53.638-49.479c-4.515-7.881-8.315-16.366-11.295-25.214c-1.39-4.054-2.634-8.351-3.69-12.75
		c-2.937-12.037-4.427-24.602-4.427-37.333V189.63c0-40.016,14.695-77.426,40.318-102.638
		c19.298-19.008,43.663-29.478,68.606-29.478c29.261,0,56.716,13.863,77.305,39.035c20.381,24.896,31.607,57.954,31.607,93.081
		v66.741c0,12.715-1.488,25.28-4.42,37.345c-1.075,4.431-2.322,8.726-3.704,12.761c-11.804,35.041-35.488,62.272-64.972,74.689
		c-0.674,0.293-1.396,0.595-2.116,0.873C278.915,386.313,267.563,388.487,256.003,388.487z M256.003,66.397
		c-22.923,0-44.491,9.31-62.374,26.925c-23.938,23.555-37.666,58.659-37.666,96.309v66.741c0,12.021,1.406,23.879,4.178,35.243
		c0.995,4.143,2.16,8.169,3.466,11.981c2.804,8.325,6.364,16.277,10.595,23.66c12.105,21.167,29.655,37.404,49.421,45.725
		c0.647,0.28,1.247,0.532,1.855,0.764c9.83,3.897,20.079,5.861,30.526,5.861c10.436,0,20.686-1.964,30.465-5.838
		c0.644-0.249,1.25-0.503,1.856-0.766c27.185-11.45,49.058-36.73,60.055-69.381c1.303-3.799,2.473-7.829,3.483-11.998
		c2.767-11.382,4.17-23.241,4.17-35.25v-66.741c0-33.082-10.511-64.14-29.598-87.456C307.562,79.104,282.549,66.397,256.003,66.397z
		"/>
	<circle style="fill:#F0A037;" cx="256.414" cy="456.237" r="7.217"/>
	<circle style="fill:#F0A037;" cx="256.414" cy="478.565" r="7.217"/>
</g>
<g>
	<path style="fill:#4D4D4D;" d="M320.204,245.043v22.511c0,4.213-3.408,7.62-7.62,7.62c-4.063,0-7.381-3.179-7.6-7.193
		c-0.01-0.139-0.01-0.289-0.01-0.427v-22.512c0-4.213,3.408-7.62,7.61-7.62c2.106,0,4.014,0.854,5.384,2.225
		c0.984,0.984,1.699,2.235,2.026,3.626C320.134,243.841,320.204,244.436,320.204,245.043z"/>
	<path style="fill:#4D4D4D;" d="M199.409,275.174L199.409,275.174c-4.206,0-7.617-3.41-7.617-7.617v-22.518
		c0-4.206,3.41-7.617,7.617-7.617l0,0c4.206,0,7.617,3.41,7.617,7.617v22.518C207.025,271.763,203.615,275.174,199.409,275.174z"/>
</g>
<g>
	<path style="fill:#68635B;" d="M331.094,217.438c0-10.22-8.285-18.506-18.505-18.506c-10.22,0-18.506,8.285-18.506,18.506l0,0
		C304.304,207.218,320.874,207.218,331.094,217.438L331.094,217.438z"/>
	<path style="fill:#68635B;" d="M217.914,217.438c0-10.22-8.285-18.506-18.506-18.506s-18.506,8.285-18.506,18.506l0,0
		C191.124,207.218,207.694,207.218,217.914,217.438L217.914,217.438z"/>
</g>
<g>
	<path style="fill:#666666;" d="M320.199,245.043v22.511c0,4.213-3.408,7.62-7.62,7.62c-4.064,0-7.381-3.179-7.6-7.193
		c8.524-8.763,12.845-18.11,15.01-24.707C320.129,243.841,320.199,244.436,320.199,245.043z"/>
	<path style="fill:#666666;" d="M207.018,245.043v22.511c0,4.213-3.408,7.62-7.62,7.62c-4.064,0-7.381-3.179-7.6-7.193
		c8.524-8.763,12.845-18.11,15.01-24.707C206.949,243.841,207.018,244.436,207.018,245.043z"/>
</g>
<path style="fill:#E0B775;" d="M274.089,298.675c0-0.567-0.114-1.121-0.331-1.658c-2.302-5.685-3.93-11.609-3.882-17.743
	c0.006-0.685,0.008-1.383,0.008-2.095c0-34.249-6.216-54.758-13.882-54.758c-7.667,0-13.882,20.51-13.882,54.758
	c0,0.712,0.002,1.41,0.008,2.095c0.049,6.133-1.581,12.058-3.882,17.743c-0.218,0.536-0.331,1.09-0.331,1.658
	c0,2.796,2.754,5.276,7.016,6.867c2.535,7.915,6.55,9.008,11.071,9.008s8.537-1.093,11.071-9.008
	C271.334,303.951,274.089,301.471,274.089,298.675z"/>
<path style="fill:#4D4D4D;" d="M297.415,332.599c-0.011,0.111-0.011,0.211-0.022,0.322c-0.044,0.633-0.111,1.266-0.211,1.888
	c-0.078,0.489-0.167,0.966-0.278,1.443c-0.078,0.344-0.167,0.688-0.255,1.033c-0.366,1.321-0.855,2.609-1.466,3.864
	c-1.943,4.064-5.063,7.728-9.071,10.77c-7.572,5.729-18.253,9.304-30.112,9.304s-22.539-3.575-30.112-9.304
	c-4.008-3.042-7.128-6.706-9.071-10.77c-0.611-1.255-1.099-2.543-1.466-3.864c-0.089-0.344-0.178-0.688-0.255-1.033
	c-0.111-0.477-0.2-0.955-0.278-1.443c-0.1-0.622-0.167-1.255-0.211-1.888c-0.011-0.111-0.011-0.211-0.022-0.322
	c1.454,0.289,2.931,0.566,4.441,0.822c11.159,1.932,23.705,3.009,36.973,3.009s25.815-1.077,36.973-3.009
	C294.485,333.166,295.962,332.888,297.415,332.599z"/>
<path style="fill:#F2F2F2;" d="M297.415,332.599c-0.011,0.111-0.011,0.211-0.022,0.322c-0.044,0.633-0.111,1.266-0.211,1.888
	c-0.078,0.489-0.167,0.966-0.278,1.443c-0.078,0.344-0.167,0.688-0.255,1.033c-0.366,1.321-0.855,2.609-1.466,3.864
	c-3.997,0.622-8.161,1.155-12.458,1.577c-8.449,0.844-17.421,1.288-26.725,1.288s-18.276-0.444-26.725-1.288
	c-4.297-0.422-8.461-0.955-12.458-1.577c-0.611-1.255-1.099-2.543-1.466-3.864c-0.089-0.344-0.178-0.688-0.255-1.033
	c-0.111-0.477-0.2-0.955-0.278-1.443c-0.1-0.622-0.167-1.255-0.211-1.888c-0.011-0.111-0.011-0.211-0.022-0.322
	c1.454,0.289,2.931,0.566,4.441,0.822c11.159,1.932,23.705,3.009,36.973,3.009c13.268,0,25.815-1.077,36.973-3.009
	C294.485,333.166,295.962,332.888,297.415,332.599z"/>
<path style="fill:#FFFFFF;" d="M292.974,333.421c-1.81,2.587-4.13,4.952-6.862,7.028c-1.066,0.811-2.198,1.577-3.386,2.276
	c-8.449,0.844-17.421,1.288-26.725,1.288c-9.304,0-18.276-0.444-26.725-1.288c-1.188-0.699-2.321-1.466-3.386-2.276
	c-2.731-2.076-5.052-4.441-6.862-7.028c11.159,1.932,23.705,3.009,36.973,3.009C269.269,336.43,281.815,335.352,292.974,333.421z"/>
<path style="fill:#EFC881;" d="M277.764,370.073c0-4.541-9.743,0.484-21.763,0.484c-12.02,0-21.763-5.024-21.763-0.484
	c0,4.54,9.743,8.222,21.763,8.222C268.021,378.295,277.764,374.614,277.764,370.073z"/>
<circle style="fill:#F0A037;" cx="256.414" cy="500.893" r="7.217"/>
<path style="fill:#545049;" d="M383.791,34.132v182.934c0,9.449-7.661,17.099-17.099,17.099H145.307
	c-9.449,0-17.099-7.65-17.099-17.099V34.132c10.004-5.774,20.43-10.892,31.233-15.278c29.623-12.091,62.022-18.775,95.975-18.853
	C302.172-0.11,346.029,12.325,383.791,34.132z"/>
<path style="fill:#423F39;" d="M177.562,234.165h-32.254c-9.449,0-17.099-7.65-17.099-17.099V34.132
	c10.004-5.774,20.43-10.892,31.233-15.278c-2.898,36.474-6.595,90.968-6.595,131.494
	C152.846,197.58,168.468,223.239,177.562,234.165z"/>
<g>
</g>
<g>
</g>
<g>
</g>
<g>
</g>
<g>
</g>
<g>
</g>
<g>
</g>
<g>
</g>
<g>
</g>
<g>
</g>
<g>
</g>
<g>
</g>
<g>
</g>
<g>
</g>
<g>
</g>
</svg>
