<?xml version="1.0" encoding="UTF-8" standalone="no"?>
<!-- Generator: Adobe Illustrator 19.0.0, SVG Export Plug-In . SVG Version: 6.00 Build 0)  -->

<svg
   xmlns:dc="http://purl.org/dc/elements/1.1/"
   xmlns:cc="http://creativecommons.org/ns#"
   xmlns:rdf="http://www.w3.org/1999/02/22-rdf-syntax-ns#"
   xmlns:svg="http://www.w3.org/2000/svg"
   xmlns="http://www.w3.org/2000/svg"
   xmlns:sodipodi="http://sodipodi.sourceforge.net/DTD/sodipodi-0.dtd"
   xmlns:inkscape="http://www.inkscape.org/namespaces/inkscape"
   version="1.1"
   id="Layer_1"
   x="0px"
   y="0px"
   viewBox="0 0 497.80701 616.50599"
   xml:space="preserve"
   sodipodi:docname="tap2.svg"
   inkscape:version="0.92.2 5c3e80d, 2017-08-06"
   width="497.80701"
   height="616.50598"><metadata
     id="metadata53"><rdf:RDF><cc:Work
         rdf:about=""><dc:format>image/svg+xml</dc:format><dc:type
           rdf:resource="http://purl.org/dc/dcmitype/StillImage" /><dc:title /></cc:Work></rdf:RDF></metadata><defs
     id="defs51" /><sodipodi:namedview
     pagecolor="#ffffff"
     bordercolor="#666666"
     borderopacity="1"
     objecttolerance="10"
     gridtolerance="10"
     guidetolerance="10"
     inkscape:pageopacity="0"
     inkscape:pageshadow="2"
     inkscape:window-width="640"
     inkscape:window-height="480"
     id="namedview49"
     showgrid="false"
     inkscape:zoom="0.46093841"
     inkscape:cx="331.27199"
     inkscape:cy="342.779"
     inkscape:window-x="70"
     inkscape:window-y="94"
     inkscape:window-maximized="0"
     inkscape:current-layer="Layer_1" /><g
     id="g307"
     transform="translate(99.418)"><polygon
       id="polygon231"
       points="256,75.016 398.389,99.282 398.389,412.718 256,436.984 113.611,412.718 113.611,99.282 "
       style="fill:#181818" /><g
       id="g237"><path
         id="path233"
         d="m 398.389,412.718 v 63.539 c 0,19.728 -16.015,35.743 -35.743,35.743 H 149.354 c -19.752,0 -35.743,-16.015 -35.743,-35.743 v -63.539 z"
         style="fill:#269af2"
         inkscape:connector-curvature="0" /><path
         id="path235"
         d="M 398.389,35.743 V 99.282 H 113.611 V 35.743 C 113.611,16.027 129.602,0 149.354,0 h 213.293 c 19.727,0 35.742,16.027 35.742,35.743 z"
         style="fill:#269af2"
         inkscape:connector-curvature="0" /></g><g
       id="g245"><circle
         id="circle239"
         r="12.133"
         cy="49.640999"
         cx="180.256"
         style="fill:#ffffff" /><path
         id="path241"
         d="m 289.771,61.774 h -67.543 c -6.701,0 -12.133,-5.432 -12.133,-12.133 0,-6.701 5.432,-12.133 12.133,-12.133 h 67.543 c 6.701,0 12.133,5.432 12.133,12.133 0,6.701 -5.432,12.133 -12.133,12.133 z"
         style="fill:#ffffff"
         inkscape:connector-curvature="0" /><path
         id="path243"
         d="m 268.625,474.492 h -25.251 c -6.701,0 -12.133,-5.432 -12.133,-12.133 0,-6.701 5.432,-12.133 12.133,-12.133 h 25.251 c 6.701,0 12.133,5.432 12.133,12.133 0,6.701 -5.432,12.133 -12.133,12.133 z"
         style="fill:#ffffff"
         inkscape:connector-curvature="0" /></g><g
       id="g247" /><g
       id="g249" /><g
       id="g251" /><g
       id="g253" /><g
       id="g255" /><g
       id="g257" /><g
       id="g259" /><g
       id="g261" /><g
       id="g263" /><g
       id="g265" /><g
       id="g267" /><g
       id="g269" /><g
       id="g271" /><g
       id="g273" /><g
       id="g275" /></g><g
     id="g6"
     transform="translate(-11.507,104.507)"><path
       style="fill:#ffe1d6"
       d="m 416.209,191.56 c -2.926,0 -5.85,-1.117 -8.082,-3.348 -4.463,-4.463 -4.463,-11.701 0,-16.166 21.969,-21.967 21.969,-57.713 0,-79.681 -10.643,-10.643 -24.791,-16.503 -39.841,-16.503 -15.05,0 -29.198,5.861 -39.84,16.503 -4.465,4.462 -11.7,4.462 -16.166,0 -4.463,-4.463 -4.463,-11.701 0,-16.166 14.96,-14.96 34.849,-23.198 56.005,-23.198 21.156,0 41.047,8.239 56.006,23.198 30.881,30.883 30.881,81.13 0,112.011 -2.232,2.233 -5.157,3.35 -8.082,3.35 z"
       id="path2"
       inkscape:connector-curvature="0" /><path
       style="fill:#ffe1d6"
       d="m 396.357,261.187 c -5.172,0 -9.861,-3.535 -11.11,-8.787 -1.461,-6.141 2.333,-12.304 8.474,-13.765 19.625,-4.668 37.582,-14.719 51.928,-29.066 42.658,-42.658 42.658,-112.068 0,-154.727 -42.657,-42.657 -112.068,-42.659 -154.728,0 -25.742,25.742 -36.972,62.477 -30.042,98.27 1.2,6.199 -2.851,12.195 -9.049,13.395 -6.201,1.208 -12.195,-2.851 -13.394,-9.049 -8.376,-43.258 5.202,-87.662 36.319,-118.78 51.574,-51.571 135.486,-51.569 187.058,0 51.571,51.571 51.571,135.485 0,187.057 -17.341,17.341 -39.058,29.492 -62.801,35.139 -0.889,0.212 -1.78,0.313 -2.655,0.313 z"
       id="path4"
       inkscape:connector-curvature="0" /></g><path
     style="fill:#ffb14d"
     d="m 301.954,327.113 -57.069,73.234 -27.496,-59.825 c 52.785,-52.785 121.598,-121.598 121.598,-121.598 9.828,-9.828 25.758,-9.82 35.578,0 9.828,9.828 9.828,25.75 0,35.578 z"
     id="path8"
     inkscape:connector-curvature="0" /><path
     style="fill:#ff9e24"
     d="m 312.421,387.802 -31.957,48.122 -43.661,-43.661 65.151,-65.151 c 9.828,-9.828 25.758,-9.82 35.578,0 9.828,9.828 9.828,25.75 0,35.578 z"
     id="path10"
     inkscape:connector-curvature="0" /><path
     style="fill:#ff8c00"
     d="m 332.465,438.915 -16.423,32.588 -43.661,-43.661 40.04,-40.04 c 9.828,-9.828 25.758,-9.82 35.578,0 9.828,9.828 9.828,25.75 0,35.578 z"
     id="path12"
     inkscape:connector-curvature="0" /><path
     style="fill:#ff9e24"
     d="m 368.043,474.492 c 0,0 -3.176,3.176 -8.341,8.341 l -51.743,-19.414 24.505,-24.505 c 9.828,-9.828 25.758,-9.82 35.578,0 9.829,9.829 9.829,25.751 0.001,35.578 z"
     id="path14"
     inkscape:connector-curvature="0" /><path
     style="fill:#ffb14d"
     d="m 217.389,340.52 -56.609,56.609 c -23.891,23.891 -33.695,56.422 -28.83,87.426 L 0,616.506 h 167.433 l 48.235,-48.235 c 31.012,4.874 63.535,-4.938 87.426,-28.83 l 56.609,-56.609 z"
     id="path16"
     inkscape:connector-curvature="0" /><g
     id="g18"
     transform="translate(-11.507,104.507)" /><g
     id="g20"
     transform="translate(-11.507,104.507)" /><g
     id="g22"
     transform="translate(-11.507,104.507)" /><g
     id="g24"
     transform="translate(-11.507,104.507)" /><g
     id="g26"
     transform="translate(-11.507,104.507)" /><g
     id="g28"
     transform="translate(-11.507,104.507)" /><g
     id="g30"
     transform="translate(-11.507,104.507)" /><g
     id="g32"
     transform="translate(-11.507,104.507)" /><g
     id="g34"
     transform="translate(-11.507,104.507)" /><g
     id="g36"
     transform="translate(-11.507,104.507)" /><g
     id="g38"
     transform="translate(-11.507,104.507)" /><g
     id="g40"
     transform="translate(-11.507,104.507)" /><g
     id="g42"
     transform="translate(-11.507,104.507)" /><g
     id="g44"
     transform="translate(-11.507,104.507)" /><g
     id="g46"
     transform="translate(-11.507,104.507)" /></svg>